<svg width="156" height="22" viewBox="0 0 156 22" fill="none" xmlns="http://www.w3.org/2000/svg">
<path d="M12.472 21.384C10.04 21.384 7.928 20.936 6.136 20.04C4.344 19.1227 2.968 17.8853 2.008 16.328C1.048 14.7707 0.568 13.0427 0.568 11.144C0.568 9.11733 1.10133 7.304 2.168 5.704C3.256 4.104 4.74933 2.86667 6.648 1.992C8.54667 1.096 10.68 0.647999 13.048 0.647999C14.072 0.647999 15.096 0.733332 16.12 0.903999C17.144 1.05333 17.9653 1.256 18.584 1.512C18.8187 1.59733 18.9467 1.672 18.968 1.736C19.0107 1.77867 19.0427 1.94933 19.064 2.248L19.48 6.696C19.48 6.76 19.416 6.80267 19.288 6.824C19.1813 6.84533 19.1173 6.81333 19.096 6.728C18.8187 6.024 18.3707 5.256 17.752 4.424C17.1333 3.592 16.3227 2.86667 15.32 2.248C14.3173 1.62933 13.1547 1.32 11.832 1.32C10.4667 1.32 9.21867 1.69333 8.088 2.44C6.95733 3.18667 6.06133 4.25333 5.4 5.64C4.76 7.02667 4.44 8.63733 4.44 10.472C4.44 12.4773 4.81333 14.2693 5.56 15.848C6.328 17.4267 7.384 18.6533 8.728 19.528C10.072 20.4027 11.5867 20.84 13.272 20.84C14.1467 20.84 14.8187 20.744 15.288 20.552C15.7573 20.36 16.0987 19.9867 16.312 19.432C16.5253 18.8773 16.632 18.056 16.632 16.968C16.632 15.8587 16.568 15.0907 16.44 14.664C16.312 14.216 16.0347 13.9173 15.608 13.768C15.2027 13.6187 14.4773 13.544 13.432 13.544C13.304 13.544 13.24 13.4587 13.24 13.288C13.24 13.224 13.2507 13.1707 13.272 13.128C13.3147 13.064 13.3573 13.032 13.4 13.032C15.2133 13.1387 16.6853 13.192 17.816 13.192C18.904 13.192 20.0347 13.16 21.208 13.096C21.2933 13.096 21.336 13.1707 21.336 13.32C21.3573 13.4693 21.3147 13.544 21.208 13.544C20.824 13.5227 20.5467 13.5973 20.376 13.768C20.2267 13.9173 20.1307 14.2373 20.088 14.728C20.0453 15.2187 20.024 16.072 20.024 17.288C20.024 18.248 20.056 18.9307 20.12 19.336C20.2053 19.7413 20.248 19.9973 20.248 20.104C20.248 20.232 20.2267 20.3173 20.184 20.36C20.1413 20.4027 20.0453 20.4453 19.896 20.488C17.144 21.0853 14.6693 21.384 12.472 21.384ZM39.3663 21C38.8756 21 37.9689 20.1147 36.6463 18.344C35.3236 16.552 33.7236 14.0667 31.8463 10.888L34.7903 9.992C36.5609 12.68 38.0329 14.7813 39.2063 16.296C40.4009 17.8107 41.4569 18.9093 42.3743 19.592C43.2916 20.2747 44.1876 20.616 45.0623 20.616C45.1049 20.616 45.1263 20.68 45.1263 20.808C45.1263 20.936 45.1049 21 45.0623 21H39.3663ZM32.4863 0.903999C34.4276 0.903999 35.9316 1.26667 36.9983 1.992C38.0649 2.696 38.5983 3.688 38.5983 4.968C38.5983 6.184 38.2463 7.28267 37.5423 8.264C36.8596 9.24533 35.9636 10.0133 34.8543 10.568C33.7449 11.1013 32.5823 11.368 31.3663 11.368C30.5343 11.368 29.9476 11.3573 29.6063 11.336V18.408C29.6063 19.0693 29.6596 19.5493 29.7663 19.848C29.8729 20.1467 30.0756 20.3493 30.3743 20.456C30.6943 20.5627 31.1956 20.616 31.8783 20.616C31.9209 20.616 31.9423 20.68 31.9423 20.808C31.9423 20.936 31.9209 21 31.8783 21C31.1743 21 30.6196 20.9893 30.2143 20.968L27.7823 20.936L25.4463 20.968C25.0196 20.9893 24.4436 21 23.7183 21C23.6543 21 23.6223 20.936 23.6223 20.808C23.6223 20.68 23.6543 20.616 23.7183 20.616C24.4009 20.616 24.8916 20.5627 25.1903 20.456C25.5103 20.3493 25.7236 20.1467 25.8303 19.848C25.9583 19.528 26.0223 19.048 26.0223 18.408V3.592C26.0223 2.952 25.9689 2.48267 25.8623 2.184C25.7556 1.88533 25.5423 1.68266 25.2223 1.576C24.9023 1.448 24.4116 1.384 23.7503 1.384C23.7076 1.384 23.6863 1.32 23.6863 1.192C23.6863 1.064 23.7076 1 23.7503 1L25.4463 1.032C26.4276 1.07467 27.2063 1.096 27.7823 1.096C28.5076 1.096 29.2649 1.064 30.0543 1C30.3316 0.978666 30.6729 0.957332 31.0783 0.935999C31.5049 0.914666 31.9743 0.903999 32.4863 0.903999ZM34.9503 6.184C34.9503 4.43467 34.6943 3.22933 34.1823 2.568C33.6703 1.90667 32.9343 1.576 31.9743 1.576C31.1209 1.576 30.5129 1.736 30.1503 2.056C29.7876 2.376 29.6063 2.90933 29.6063 3.656V10.44C30.1183 10.5253 30.7369 10.568 31.4623 10.568C32.6996 10.568 33.5849 10.2267 34.1183 9.544C34.6729 8.84 34.9503 7.72 34.9503 6.184ZM61.3345 5.096C61.3345 3.944 61.0678 3.03733 60.5345 2.376C60.0225 1.71467 59.2972 1.384 58.3585 1.384C58.3158 1.384 58.2945 1.32 58.2945 1.192C58.2945 1.064 58.3158 1 58.3585 1L59.8945 1.032C60.7052 1.07467 61.3558 1.096 61.8465 1.096C62.2518 1.096 62.8385 1.07467 63.6065 1.032L65.0785 1C65.1212 1 65.1425 1.064 65.1425 1.192C65.1425 1.32 65.1212 1.384 65.0785 1.384C64.2465 1.384 63.5958 1.71467 63.1265 2.376C62.6572 3.03733 62.4225 3.944 62.4225 5.096V13.992C62.4225 15.4853 62.0918 16.7973 61.4305 17.928C60.7692 19.0587 59.8305 19.9333 58.6145 20.552C57.4198 21.1493 56.0332 21.448 54.4545 21.448C52.8758 21.448 51.4785 21.1493 50.2625 20.552C49.0465 19.9547 48.0865 19.0907 47.3825 17.96C46.6998 16.808 46.3585 15.464 46.3585 13.928V3.592C46.3585 2.952 46.2945 2.48267 46.1665 2.184C46.0598 1.88533 45.8465 1.68266 45.5265 1.576C45.2278 1.448 44.7478 1.384 44.0865 1.384C44.0225 1.384 43.9905 1.32 43.9905 1.192C43.9905 1.064 44.0225 1 44.0865 1L45.7825 1.032C46.7638 1.07467 47.5425 1.096 48.1185 1.096C48.7585 1.096 49.5692 1.07467 50.5505 1.032L52.1825 1C52.2465 1 52.2785 1.064 52.2785 1.192C52.2785 1.32 52.2465 1.384 52.1825 1.384C51.5212 1.384 51.0305 1.448 50.7105 1.576C50.4118 1.704 50.1985 1.928 50.0705 2.248C49.9638 2.54667 49.9105 3.016 49.9105 3.656V12.808C49.9105 15.3467 50.4118 17.224 51.4145 18.44C52.4172 19.656 53.8358 20.264 55.6705 20.264C57.4412 20.264 58.8278 19.7307 59.8305 18.664C60.8332 17.576 61.3345 16.0293 61.3345 14.024V5.096ZM69.6265 1.736L70.5545 1.8L70.2025 16.936C70.1812 18.088 70.4052 18.9947 70.8745 19.656C71.3652 20.296 72.0478 20.616 72.9225 20.616C72.9865 20.616 73.0185 20.68 73.0185 20.808C73.0185 20.936 72.9865 21 72.9225 21C72.3465 21 71.8985 20.9893 71.5785 20.968L69.8185 20.936L67.8025 20.968C67.4612 20.9893 67.0025 21 66.4265 21C66.3625 21 66.3305 20.936 66.3305 20.808C66.3305 20.68 66.3625 20.616 66.4265 20.616C67.3012 20.616 67.9945 20.2853 68.5065 19.624C69.0185 18.9627 69.2852 18.0667 69.3065 16.936L69.6265 1.736ZM92.2185 20.616C92.2612 20.616 92.2825 20.68 92.2825 20.808C92.2825 20.936 92.2612 21 92.2185 21C91.4932 21 90.9172 20.9893 90.4905 20.968L88.1225 20.936L85.7225 20.968C85.3172 20.9893 84.7625 21 84.0585 21C83.9945 21 83.9625 20.936 83.9625 20.808C83.9625 20.68 83.9945 20.616 84.0585 20.616C84.7412 20.616 85.2425 20.5627 85.5625 20.456C85.9038 20.328 86.1278 20.1147 86.2345 19.816C86.3412 19.5173 86.3732 19.048 86.3305 18.408L85.5945 4.2L87.2265 1.64L79.0665 20.776C79.0238 20.8613 78.9385 20.904 78.8105 20.904C78.6825 20.904 78.5972 20.8613 78.5545 20.776L69.5625 3.656C69.1358 2.86666 68.6878 2.29067 68.2185 1.928C67.7705 1.56533 67.2478 1.384 66.6505 1.384C66.5865 1.384 66.5545 1.32 66.5545 1.192C66.5545 1.064 66.5865 1 66.6505 1L68.1545 1.032C68.4532 1.05333 68.8372 1.064 69.3065 1.064L71.0025 1.032C71.1945 1.01067 71.4398 1 71.7385 1C72.0158 1 72.2292 1.096 72.3785 1.288C72.5278 1.48 72.8052 1.93867 73.2105 2.664L80.3785 16.104L78.7785 18.984L86.2665 1.8C86.3945 1.50133 86.5225 1.29867 86.6505 1.192C86.7998 1.064 86.9918 1 87.2265 1C87.4185 1 87.6318 1.01067 87.8665 1.032C88.1225 1.05333 88.4105 1.064 88.7305 1.064L90.6185 1.032C90.9172 1.01067 91.3438 1 91.8985 1C91.9625 1 91.9945 1.064 91.9945 1.192C91.9945 1.32 91.9625 1.384 91.8985 1.384C90.8958 1.384 90.1705 1.58667 89.7225 1.992C89.2745 2.39733 89.0718 3.02667 89.1145 3.88L89.8825 18.408C89.9252 19.0693 89.9998 19.5493 90.1065 19.848C90.2345 20.1467 90.4478 20.3493 90.7465 20.456C91.0665 20.5627 91.5572 20.616 92.2185 20.616ZM94.312 21C94.248 21 94.216 20.936 94.216 20.808C94.216 20.68 94.248 20.616 94.312 20.616C94.9947 20.616 95.4853 20.5627 95.784 20.456C96.104 20.3493 96.3173 20.1467 96.424 19.848C96.5307 19.528 96.584 19.048 96.584 18.408V3.592C96.584 2.952 96.5307 2.48267 96.424 2.184C96.3173 1.88533 96.104 1.68266 95.784 1.576C95.464 1.448 94.9733 1.384 94.312 1.384C94.248 1.384 94.216 1.32 94.216 1.192C94.216 1.064 94.248 1 94.312 1H107.88C108.093 1 108.2 1.096 108.2 1.288L108.264 5.544C108.264 5.58667 108.2 5.61867 108.072 5.64C107.965 5.66133 107.901 5.64 107.88 5.576C107.539 4.33867 106.963 3.42133 106.152 2.824C105.341 2.22667 104.275 1.928 102.952 1.928H101.992C101.352 1.928 100.883 2.06667 100.584 2.344C100.285 2.62133 100.136 3.048 100.136 3.624V18.28C100.136 18.8987 100.253 19.3573 100.488 19.656C100.723 19.9547 101.096 20.104 101.608 20.104H102.664C104.328 20.104 105.661 19.7627 106.664 19.08C107.667 18.3973 108.403 17.3413 108.872 15.912C108.872 15.8693 108.915 15.848 109 15.848C109.064 15.848 109.117 15.8693 109.16 15.912C109.224 15.9333 109.256 15.9547 109.256 15.976C109.043 17.64 108.936 19.1547 108.936 20.52C108.936 20.6907 108.904 20.8187 108.84 20.904C108.776 20.968 108.648 21 108.456 21H94.312ZM106.664 13.864C106.664 12.9893 106.323 12.3067 105.64 11.816C104.979 11.304 104.019 11.048 102.76 11.048H98.44V10.152H102.792C104.029 10.152 104.979 9.93867 105.64 9.512C106.301 9.08533 106.632 8.488 106.632 7.72C106.632 7.656 106.685 7.624 106.792 7.624C106.92 7.624 106.984 7.656 106.984 7.72L106.952 10.6L106.984 12.136C107.027 12.8613 107.048 13.4373 107.048 13.864C107.048 13.9067 106.984 13.928 106.856 13.928C106.728 13.928 106.664 13.9067 106.664 13.864ZM126.721 13.545C126.721 13.005 126.596 12.58 126.346 12.27C126.106 11.96 125.766 11.805 125.326 11.805C125.306 11.805 125.296 11.775 125.296 11.715C125.296 11.655 125.306 11.625 125.326 11.625L126.046 11.64C126.426 11.66 126.731 11.67 126.961 11.67C127.151 11.67 127.426 11.66 127.786 11.64L128.476 11.625C128.496 11.625 128.506 11.655 128.506 11.715C128.506 11.775 128.496 11.805 128.476 11.805C128.086 11.805 127.781 11.96 127.561 12.27C127.341 12.58 127.231 13.005 127.231 13.545V17.715C127.231 18.415 127.076 19.03 126.766 19.56C126.456 20.09 126.016 20.5 125.446 20.79C124.886 21.07 124.236 21.21 123.496 21.21C122.756 21.21 122.101 21.07 121.531 20.79C120.961 20.51 120.511 20.105 120.181 19.575C119.861 19.035 119.701 18.405 119.701 17.685V12.84C119.701 12.54 119.671 12.32 119.611 12.18C119.561 12.04 119.461 11.945 119.311 11.895C119.171 11.835 118.946 11.805 118.636 11.805C118.606 11.805 118.591 11.775 118.591 11.715C118.591 11.655 118.606 11.625 118.636 11.625L119.431 11.64C119.891 11.66 120.256 11.67 120.526 11.67C120.826 11.67 121.206 11.66 121.666 11.64L122.431 11.625C122.461 11.625 122.476 11.655 122.476 11.715C122.476 11.775 122.461 11.805 122.431 11.805C122.121 11.805 121.891 11.835 121.741 11.895C121.601 11.955 121.501 12.06 121.441 12.21C121.391 12.35 121.366 12.57 121.366 12.87V17.16C121.366 18.35 121.601 19.23 122.071 19.8C122.541 20.37 123.206 20.655 124.066 20.655C124.896 20.655 125.546 20.405 126.016 19.905C126.486 19.395 126.721 18.67 126.721 17.73V13.545ZM129.213 21C129.183 21 129.168 20.97 129.168 20.91C129.168 20.85 129.183 20.82 129.213 20.82C129.563 20.82 129.818 20.795 129.978 20.745C130.138 20.695 130.243 20.6 130.293 20.46C130.353 20.31 130.383 20.085 130.383 19.785V12.84C130.383 12.54 130.358 12.32 130.308 12.18C130.258 12.04 130.158 11.945 130.008 11.895C129.858 11.835 129.628 11.805 129.318 11.805C129.288 11.805 129.273 11.775 129.273 11.715C129.273 11.655 129.288 11.625 129.318 11.625H135.678C135.778 11.625 135.828 11.67 135.828 11.76L135.858 13.755C135.858 13.775 135.828 13.79 135.768 13.8C135.718 13.81 135.688 13.8 135.678 13.77C135.518 13.19 135.248 12.76 134.868 12.48C134.488 12.2 133.988 12.06 133.368 12.06H132.918C132.618 12.06 132.398 12.125 132.258 12.255C132.118 12.385 132.048 12.585 132.048 12.855V19.725C132.048 20.035 132.088 20.265 132.168 20.415C132.248 20.565 132.398 20.67 132.618 20.73C132.838 20.79 133.183 20.82 133.653 20.82C133.673 20.82 133.683 20.85 133.683 20.91C133.683 20.97 133.673 21 133.653 21C133.243 21 132.923 20.995 132.693 20.985L131.163 20.97L130.038 20.985C129.838 20.995 129.563 21 129.213 21ZM134.928 17.82C134.928 17.42 134.768 17.105 134.448 16.875C134.138 16.635 133.693 16.515 133.113 16.515H131.253V16.095H133.128C133.708 16.095 134.148 15.995 134.448 15.795C134.758 15.585 134.913 15.3 134.913 14.94C134.913 14.92 134.943 14.91 135.003 14.91C135.063 14.91 135.093 14.92 135.093 14.94L135.078 16.305C135.078 16.625 135.083 16.865 135.093 17.025L135.108 17.82C135.108 17.85 135.078 17.865 135.018 17.865C134.958 17.865 134.928 17.85 134.928 17.82ZM139.78 19.725C139.78 20.045 139.815 20.28 139.885 20.43C139.955 20.57 140.085 20.67 140.275 20.73C140.475 20.79 140.79 20.82 141.22 20.82C141.25 20.82 141.265 20.85 141.265 20.91C141.265 20.97 141.25 21 141.22 21C140.81 21 140.49 20.995 140.26 20.985L138.955 20.97L137.86 20.985C137.66 20.995 137.39 21 137.05 21C137.02 21 137.005 20.97 137.005 20.91C137.005 20.85 137.02 20.82 137.05 20.82C137.37 20.82 137.6 20.795 137.74 20.745C137.89 20.695 137.99 20.6 138.04 20.46C138.09 20.31 138.115 20.085 138.115 19.785V12.84C138.115 12.54 138.09 12.32 138.04 12.18C137.99 12.04 137.89 11.945 137.74 11.895C137.59 11.835 137.36 11.805 137.05 11.805C137.02 11.805 137.005 11.775 137.005 11.715C137.005 11.655 137.02 11.625 137.05 11.625L137.845 11.64C138.305 11.66 138.67 11.67 138.94 11.67C139.18 11.67 139.465 11.655 139.795 11.625C139.925 11.615 140.09 11.605 140.29 11.595C140.49 11.585 140.72 11.58 140.98 11.58C142 11.58 142.805 11.795 143.395 12.225C143.985 12.645 144.28 13.3 144.28 14.19C144.28 14.81 144.12 15.335 143.8 15.765C143.48 16.195 143.065 16.52 142.555 16.74C142.055 16.96 141.54 17.07 141.01 17.07C140.74 17.07 140.505 17.045 140.305 16.995C140.285 16.995 140.275 16.97 140.275 16.92C140.275 16.89 140.28 16.86 140.29 16.83C140.31 16.8 140.33 16.79 140.35 16.8C140.5 16.84 140.67 16.86 140.86 16.86C141.32 16.86 141.7 16.645 142 16.215C142.31 15.785 142.465 15.175 142.465 14.385C142.465 13.595 142.295 12.985 141.955 12.555C141.625 12.125 141.14 11.91 140.5 11.91C140.22 11.91 140.03 11.975 139.93 12.105C139.83 12.235 139.78 12.49 139.78 12.87V19.725ZM152.781 21C152.551 21 152.126 20.585 151.506 19.755C150.886 18.915 150.136 17.75 149.256 16.26L150.636 15.84C151.466 17.1 152.156 18.085 152.706 18.795C153.266 19.505 153.761 20.02 154.191 20.34C154.621 20.66 155.041 20.82 155.451 20.82C155.471 20.82 155.481 20.85 155.481 20.91C155.481 20.97 155.471 21 155.451 21H152.781ZM149.556 11.58C150.466 11.58 151.171 11.75 151.671 12.09C152.171 12.42 152.421 12.885 152.421 13.485C152.421 14.055 152.256 14.57 151.926 15.03C151.606 15.49 151.186 15.85 150.666 16.11C150.146 16.36 149.601 16.485 149.031 16.485C148.641 16.485 148.366 16.48 148.206 16.47V19.785C148.206 20.095 148.231 20.32 148.281 20.46C148.331 20.6 148.426 20.695 148.566 20.745C148.716 20.795 148.951 20.82 149.271 20.82C149.291 20.82 149.301 20.85 149.301 20.91C149.301 20.97 149.291 21 149.271 21C148.941 21 148.681 20.995 148.491 20.985L147.351 20.97L146.256 20.985C146.056 20.995 145.786 21 145.446 21C145.416 21 145.401 20.97 145.401 20.91C145.401 20.85 145.416 20.82 145.446 20.82C145.766 20.82 145.996 20.795 146.136 20.745C146.286 20.695 146.386 20.6 146.436 20.46C146.496 20.31 146.526 20.085 146.526 19.785V12.84C146.526 12.54 146.501 12.32 146.451 12.18C146.401 12.04 146.301 11.945 146.151 11.895C146.001 11.835 145.771 11.805 145.461 11.805C145.441 11.805 145.431 11.775 145.431 11.715C145.431 11.655 145.441 11.625 145.461 11.625L146.256 11.64C146.716 11.66 147.081 11.67 147.351 11.67C147.691 11.67 148.046 11.655 148.416 11.625C148.546 11.615 148.706 11.605 148.896 11.595C149.096 11.585 149.316 11.58 149.556 11.58ZM150.711 14.055C150.711 13.235 150.591 12.67 150.351 12.36C150.111 12.05 149.766 11.895 149.316 11.895C148.916 11.895 148.631 11.97 148.461 12.12C148.291 12.27 148.206 12.52 148.206 12.87V16.05C148.446 16.09 148.736 16.11 149.076 16.11C149.656 16.11 150.071 15.95 150.321 15.63C150.581 15.3 150.711 14.775 150.711 14.055Z" fill="#ECFFF5"/>
</svg>
